<svg width="32" height="32" viewBox="0 0 32 32" fill="none" xmlns="http://www.w3.org/2000/svg">
  <rect width="32" height="32" rx="6" fill="url(#gradient)"/>
  <path d="M16 6C10.477 6 6 10.477 6 16C6 21.523 10.477 26 16 26C21.523 26 26 21.523 26 16C26 10.477 21.523 6 16 6ZM19.5 12.5C19.5 12.5 20.5 13 20.5 14.5C20.5 16 19 16.5 19 16.5C19 16.5 20.5 17 20.5 18.5C20.5 20 19.5 20.5 19.5 20.5H12.5V12.5H19.5ZM14.5 14.5V15.5H17.5C17.5 15.5 18.5 15.5 18.5 14.5C18.5 13.5 17.5 14.5 17.5 14.5H14.5ZM14.5 17.5V18.5H17.5C17.5 18.5 18.5 18.5 18.5 17.5C18.5 16.5 17.5 17.5 17.5 17.5H14.5Z" fill="white"/>
  <defs>
    <linearGradient id="gradient" x1="0" y1="0" x2="32" y2="32" gradientUnits="userSpaceOnUse">
      <stop stop-color="#F7941D"/>
      <stop offset="1" stop-color="#EF6C00"/>
    </linearGradient>
  </defs>
</svg>
